<svg width="499.99999999999994" height="499.99999999999994" xmlns="http://www.w3.org/2000/svg">

 <g>
  <title>Layer 1</title>
  <path fill="#5c7cfa" id="svg_1" d="m265.72527,9.06485l186.71535,107.80145a30.03384,30.03384 0 0 1 15.01692,26.0093l0,215.60289a30.03384,30.03384 0 0 1 -15.01692,26.0093l-186.71535,107.80145a30.03384,30.03384 0 0 1 -30.03384,0l-186.71535,-107.80145a30.03384,30.03384 0 0 1 -15.01692,-26.0093l0,-215.60289a30.03384,30.03384 0 0 1 15.01692,-26.0093l186.71535,-107.80145a30.03384,30.03384 0 0 1 30.03384,0z"/>
  <g>
   <g>
    <path fill="#ffffff" d="m250.72875,346.80467c-13.63863,0 -25.15027,8.82618 -29.42007,21.03149c-43.11895,-10.83265 -77.04943,-44.74885 -87.88324,-87.88324c12.20571,-4.2698 21.03149,-15.78106 21.03149,-29.42007c0,-17.25994 -14.0461,-31.30604 -31.30604,-31.30604s-31.29098,14.0461 -31.29098,31.30604c0,16.32448 12.59773,29.61627 28.57499,31.03452c11.67734,49.03216 50.27197,87.61288 99.30413,99.28868c1.41821,15.9622 14.69497,28.57499 31.03452,28.57499c17.25994,0 31.30604,-14.0461 31.30604,-31.30604s-14.0461,-31.29098 -31.30604,-31.29098l-0.0448,-0.02935zm0,49.57675c-8.25262,0 -15.17776,-5.52196 -17.4407,-13.0504c5.71817,0.75435 11.51165,1.2673 17.4407,1.2673l0,-13.00521c-5.61234,0 -11.08911,-0.51295 -16.50524,-1.25224c2.92691,-6.18589 9.20314,-10.51594 16.50524,-10.51594c10.0934,0 18.30083,8.20743 18.30083,18.28577s-8.20743,18.30083 -18.30083,18.30083l0,-0.03013z"/>
    <path fill="#ffffff" d="m381.05118,219.48327c-11.67734,-49.03216 -50.27197,-87.61288 -99.30413,-99.28868c-1.41821,-15.9622 -14.69497,-28.57499 -31.03452,-28.57499c-17.25994,0 -31.30604,14.0461 -31.30604,31.30604s14.0461,31.29098 31.30604,31.29098c13.63863,0 25.15027,-8.82618 29.42007,-21.03149c43.11895,10.83265 77.04943,44.74885 87.88324,87.88324c-12.20571,4.2698 -21.03149,15.78106 -21.03149,29.42007c0,17.25994 14.0461,31.30604 31.30604,31.30604s31.29098,-14.0461 31.29098,-31.30604c0,-16.32448 -12.59773,-29.61627 -28.57499,-31.03452l0.0448,0.02935zm-130.32242,-78.27379c-10.0934,0 -18.30083,-8.20743 -18.30083,-18.28577s8.20743,-18.30083 18.30083,-18.30083c8.25262,0 15.17776,5.52196 17.4407,13.0504c-5.71817,-0.75435 -11.51165,-1.2673 -17.4407,-1.2673l0,13.00521c5.61234,0 11.08911,0.51295 16.50524,1.25224c-2.92691,6.18589 -9.20314,10.51594 -16.50524,10.51594l0,0.03013z"/>
    <path fill="#ffffff" d="m209.35944,136.68284l-4.43549,-12.23583c-36.66192,13.32192 -65.62855,41.85211 -79.54063,78.30083l12.16013,4.64676c12.53748,-32.93517 38.71204,-58.68796 71.81599,-70.71523l0,0.00348z"/>
    <path fill="#ffffff" d="m292.92847,364.04993l4.54132,12.19026c34.60987,-12.86925 62.65843,-39.80121 76.9606,-73.85143l-11.99444,-5.03917c-12.91483,30.77806 -38.23079,55.08442 -69.49087,66.71386l-0.01661,-0.01352z"/>
    <path fill="#ffffff" d="m250.72875,191.31536c-32.64858,0 -59.2171,26.55345 -59.2171,59.20165s26.56852,59.20165 59.2171,59.20165s59.2171,-26.55345 59.2171,-59.20165s-26.56852,-59.20165 -59.2171,-59.20165zm0,105.39887c-25.48243,0 -46.19722,-20.72985 -46.19722,-46.19722s20.72985,-46.19722 46.19722,-46.19722c25.48243,0 46.19722,20.72985 46.19722,46.19722s-20.72985,46.19722 -46.19722,46.19722z"/>
   </g>
  </g>
 </g>
</svg>